<?xml version="1.0" encoding="UTF-8" standalone="no"?>
<!DOCTYPE svg PUBLIC "-//W3C//DTD SVG 1.1//EN"
 "http://www.w3.org/Graphics/SVG/1.1/DTD/svg11.dtd">
<!-- Generated by graphviz version 2.30.1 (20130223.2017)
 -->
<!-- Title: G Pages: 1 -->
<svg width="600pt" height="270pt"
 viewBox="0.00 0.00 600.00 270.00" xmlns="http://www.w3.org/2000/svg" xmlns:xlink="http://www.w3.org/1999/xlink">
<g id="graph0" class="graph" transform="scale(1 1) rotate(0) translate(4 266)">
<title>G</title>
<polygon fill="white" stroke="white" points="-4,5 -4,-266 597,-266 597,5 -4,5"/>
<g id="clust1" class="cluster"><title>cluster_TorControl</title>
<path fill="none" stroke="gray" d="M312,-44C312,-44 572,-44 572,-44 578,-44 584,-50 584,-56 584,-56 584,-242 584,-242 584,-248 578,-254 572,-254 572,-254 312,-254 312,-254 306,-254 300,-248 300,-242 300,-242 300,-56 300,-56 300,-50 306,-44 312,-44"/>
<text text-anchor="middle" x="442" y="-239" font-family="Times,serif" font-size="11.00" fill="gray">TorControl</text>
</g>
<g id="clust2" class="cluster"><title>cluster_TorControl\Exception</title>
<path fill="none" stroke="gray" d="M320,-98C320,-98 564,-98 564,-98 570,-98 576,-104 576,-110 576,-110 576,-213 576,-213 576,-219 570,-225 564,-225 564,-225 320,-225 320,-225 314,-225 308,-219 308,-213 308,-213 308,-110 308,-110 308,-104 314,-98 320,-98"/>
<text text-anchor="middle" x="442" y="-210" font-family="Times,serif" font-size="11.00" fill="gray">Exception</text>
</g>
<!-- \\TorControl\\Exception\\IOError -->
<g id="node1" class="node"><title>\\TorControl\\Exception\\IOError</title>
<g id="a_node1"><a xlink:href="Exception.IOError.html" xlink:title="IOError" target="_parent">
<polygon fill="none" stroke="black" points="564.208,-142 501.792,-142 501.792,-106 564.208,-106 564.208,-142"/>
<text text-anchor="middle" x="533" y="-119.6" font-family="Courier,monospace" font-size="11.00">IOError</text>
</a>
</g>
</g>
<!-- \\Exception -->
<g id="node5" class="node"><title>\\Exception</title>
<ellipse fill="none" stroke="black" cx="367" cy="-18" rx="52.7417" ry="18"/>
<text text-anchor="middle" x="367" y="-12.4" font-family="Times,serif" font-size="14.00" fill="gray">\Exception</text>
</g>
<!-- \\TorControl\\Exception\\IOError&#45;&gt;\\Exception -->
<g id="edge1" class="edge"><title>\\TorControl\\Exception\\IOError&#45;&gt;\\Exception</title>
<path fill="none" stroke="black" d="M501.688,-107.717C498.393,-105.832 495.11,-103.903 492,-102 459.66,-82.2113 423.934,-57.7146 399.169,-40.2924"/>
<polygon fill="none" stroke="black" points="401.078,-37.3553 390.891,-34.4443 397.039,-43.0727 401.078,-37.3553"/>
</g>
<!-- \\TorControl\\Exception\\ProtocolError -->
<g id="node2" class="node"><title>\\TorControl\\Exception\\ProtocolError</title>
<g id="a_node2"><a xlink:href="Exception.ProtocolError.html" xlink:title="ProtocolError" target="_parent">
<polygon fill="none" stroke="black" points="417.814,-196 316.186,-196 316.186,-160 417.814,-160 417.814,-196"/>
<text text-anchor="middle" x="367" y="-173.6" font-family="Courier,monospace" font-size="11.00">ProtocolError</text>
</a>
</g>
</g>
<!-- \\UnexpectedValueException -->
<g id="node6" class="node"><title>\\UnexpectedValueException</title>
<ellipse fill="none" stroke="black" cx="121" cy="-178" rx="120.948" ry="18"/>
<text text-anchor="middle" x="121" y="-172.4" font-family="Times,serif" font-size="14.00" fill="gray">\UnexpectedValueException</text>
</g>
<!-- \\TorControl\\Exception\\ProtocolError&#45;&gt;\\UnexpectedValueException -->
<g id="edge2" class="edge"><title>\\TorControl\\Exception\\ProtocolError&#45;&gt;\\UnexpectedValueException</title>
<path fill="none" stroke="black" d="M316.034,-178C297.27,-178 274.963,-178 252.274,-178"/>
<polygon fill="none" stroke="black" points="252.186,-174.5 242.186,-178 252.186,-181.5 252.186,-174.5"/>
</g>
<!-- \\TorControl\\Exception\\TorError -->
<g id="node3" class="node"><title>\\TorControl\\Exception\\TorError</title>
<g id="a_node3"><a xlink:href="Exception.TorError.html" xlink:title="TorError" target="_parent">
<polygon fill="none" stroke="black" points="567.309,-196 498.691,-196 498.691,-160 567.309,-160 567.309,-196"/>
<text text-anchor="middle" x="533" y="-173.6" font-family="Courier,monospace" font-size="11.00">TorError</text>
</a>
</g>
</g>
<!-- \\TorControl\\Exception\\TorError&#45;&gt;\\TorControl\\Exception\\ProtocolError -->
<g id="edge3" class="edge"><title>\\TorControl\\Exception\\TorError&#45;&gt;\\TorControl\\Exception\\ProtocolError</title>
<path fill="none" stroke="black" d="M498.416,-178C478.253,-178 452.006,-178 428.348,-178"/>
<polygon fill="none" stroke="black" points="428.043,-174.5 418.043,-178 428.043,-181.5 428.043,-174.5"/>
</g>
<!-- \\TorControl\\TorControl -->
<g id="node4" class="node"><title>\\TorControl\\TorControl</title>
<g id="a_node4"><a xlink:href="TorControl.html" xlink:title="TorControl" target="_parent">
<polygon fill="none" stroke="black" points="574.011,-88 491.989,-88 491.989,-52 574.011,-52 574.011,-88"/>
<text text-anchor="middle" x="533" y="-65.6" font-family="Courier,monospace" font-size="11.00">TorControl</text>
</a>
</g>
</g>
</g>
</svg>
